<svg width="1455" height="1455" viewBox="0 0 1455 1455" fill="none" xmlns="http://www.w3.org/2000/svg">
<path d="M986.766 546.78C985.616 534.782 992.518 508.977 1016.71 511.36C1022.05 495.056 1008.14 493.133 1026.17 489.248C1013.74 482.712 997.86 483.75 986.432 492.13C974.669 500.746 963.947 516.012 968.064 534.357C942.016 527.822 921.014 518.973 896.746 504.667C893.111 528.741 883.686 551.892 868.957 573.006C892.22 584.465 918.491 593.12 943.575 599.157C966.06 604.619 989.623 611.925 1002.98 599.157C1026.28 576.852 991.516 534.935 1030.62 523.511C1000.98 513.476 990.696 526.937 986.766 546.78Z" fill="#003459"/>
<path d="M1045.86 298.581C1023.26 301.685 1017.84 319.135 1015.58 333.198C1011.43 317.915 1014.41 302.735 1031.09 295.194C1030.38 280.122 1019.83 276.842 1037.75 262.708C1024.43 262.987 1008 264.173 994.293 280.086C985.402 290.417 982.993 312.401 986.321 338.536C948.674 389.239 920.624 362.023 898.348 400.162C892.538 395.941 885.668 393.254 878.584 391.37C879.895 402.432 878.903 425.255 868.03 438.444C858.82 410.004 832.187 397.825 811.221 397.825C804.314 397.825 797.125 398.978 789.791 401.211C765.356 408.712 755.968 424.484 773.925 456.939C757.739 456.939 717.825 459.836 706.102 421.102C671.25 451.982 665.764 486.567 666.893 503.385C668.382 525.787 665.336 542.958 637.04 562.046C590.074 593.733 572.65 630.266 561.459 661.814C546.795 703.061 538.686 738.724 475.147 734.363C448.901 732.861 426.378 723.79 409.446 710.041C343.253 657.382 355.33 561.453 394.996 511.446C428.891 468.768 470.791 462.416 497.069 486.078C479.928 491.313 475.43 508.83 481.485 525.72C486.092 538.562 498.025 547.251 505.961 558.417C519.383 577.297 520.093 604.167 507.659 623.707C528.06 612.713 545.803 596.138 555.154 575.063C563.44 556.358 561.778 525.962 552.677 507.642C525.757 453.588 461.867 454.951 434.309 462.977C367.656 484.019 334.47 577.051 345.697 643.212C356.606 705.538 398.611 752.787 469.02 763.642C468.665 763.642 469.762 763.71 469.73 763.71C512.758 768.491 547.965 760.78 572.049 724.418C569.709 743.156 573.074 758.964 576.228 773.901C589.19 834.967 577.644 851.228 551.434 874.437C526.112 896.839 549.627 933.408 533.196 986.102C528.556 1001 530.009 1022.36 540.953 1028.43C558.623 1038.2 587.347 1023.23 588.658 1050.83C601.692 1030.77 593.935 1010.98 573.501 997.931C589.864 997.375 600.914 1013.77 602.435 1025.95C613.771 1028.01 624.679 1025.5 630.061 1043.68C632.187 1033.21 633.179 1000.9 608.599 992.176C623.792 992.176 634.664 1003.44 634.664 1014.23C640.368 1014.44 646.319 1015.35 650.676 1026.16C654.783 956.128 596.593 974.551 591.175 962.825C587.665 955.218 594.608 915.509 598.433 902.42C601.551 891.708 608.635 882.53 618.269 876.702C699.09 827.848 711.06 751.984 712.193 743.088C728.342 614.53 763.23 652.636 849.788 576.387C886.41 544.111 897.779 514.868 897.815 487.577C827.725 479.238 793.902 457.324 779.488 439.7C794.289 447.936 796.912 449.402 801.87 452.157C823.864 464.372 874.3 475.33 899.513 476.308C912.83 476.793 922.642 468.561 929.903 465.314C970.314 447.236 994.148 410.318 1012.25 405.783C1050.07 396.255 1047.31 389.521 1050.07 372.664C1055.67 338.468 1028.08 324.998 1045.96 298.509" fill="#003459"/>
<path d="M940.338 777.292C920.295 795.158 887.631 807.353 857.311 792.422C852.695 790.16 848.109 788.945 843.657 788.572C852.325 760.438 878.864 673.876 855.169 657.699C827.292 638.652 788.106 647.227 759.76 661.177C744.097 675.903 734.19 697.958 727.5 748.316C750.154 758.615 773.247 764.424 789.108 759.765C783.253 761.488 787.503 778.408 788.876 782.02C792.223 790.703 794.197 799.889 794.632 809.211C795.032 818.024 791.754 827.919 795.733 836.229C799.416 843.896 808.05 847.308 816.081 848.22C844.026 851.428 870.664 839.099 898.274 837.514C906.508 837.04 909.45 842.376 916.48 845.212C923.806 848.151 932.173 847.578 939 843.557C957.473 832.616 960.953 812.45 981.503 810.661C986.958 810.188 992.981 811.673 996.229 816.101C994.754 800.563 990.64 788.168 975.648 784.69C966.545 782.562 956.939 784.621 948.473 789.014C962.493 778.577 983.981 775.065 991.677 786.852C994.121 776.953 1005.46 779.893 1010.42 783.813C1002.69 752.605 956.974 762.431 940.308 777.292" fill="#003459"/>
<path d="M986.549 808.373C975.998 808.373 969.997 827.821 969.997 827.821C973.49 835.057 980.78 827.95 983.101 834.536C985.422 841.121 984.719 848.75 984.719 848.75C995.903 822.939 986.525 808.333 986.525 808.333" fill="#003459"/>
<path d="M762.711 195.502C762.711 195.502 762.817 195.362 762.853 195.292C768.466 187.645 786.197 197.073 792.947 202.171C784.562 207.619 777.601 209.609 770.101 208.981C760.83 208.212 758.624 201.194 762.748 195.467L762.711 195.502ZM591.848 249.069C576.073 313.811 631.036 346.881 591.314 430.55C614.479 428.314 637.22 418.466 644.61 397.305C632.529 432.049 640.344 502.381 655.626 505.209C647.593 457.438 709.027 413.195 710.375 409.842C699.966 453.282 742.638 463.444 762.643 463.13C744.095 438.93 744.771 414.277 782.643 402.683C817.679 391.927 848.093 404.568 863.37 432.713C874.026 391.263 851.002 348.556 813.911 342.899C790.07 339.268 772.623 338.989 772.837 318.385C796.217 352.712 855.163 294.85 837.857 330.223C857.223 326.977 875.022 285.455 851.715 279.727C841.658 277.249 830.253 280.185 822.721 287.201C819.488 290.204 811.034 297.607 808.795 292.161C799.342 268.904 813.696 246.659 840.132 247.323C848.659 247.533 864.293 252.212 868.235 238.279C870.153 231.574 867.988 222.984 864.649 218.269C864.329 217.781 864.256 217.711 863.9 217.117C870.19 209.854 866.567 198.784 861.237 197.806C851.002 191.8 840.913 189.355 825.53 184.641C801.794 177.343 802.008 176.226 776.532 172.454C780.939 160.302 777.491 144.099 758.802 133.204C738.765 121.506 692.361 123.461 670.689 101.042C671.114 118.398 675.307 126.22 682.308 129.956C548.609 164.737 561.078 268.485 572.341 304.766C564.704 267.402 591.775 249.104 591.775 249.104" fill="#003459"/>
<path d="M832.644 263.751C821.374 259.931 808.929 267.036 808.338 277.962C808.338 278.062 808.338 278.163 808.338 278.263C808.191 282.217 813.346 284.328 816.735 281.851C821.411 278.43 826.528 275.616 832.384 274.778C841.959 273.404 852.377 277.694 861.475 274.007C865.929 272.197 869.574 267.941 868.873 263.517C854.697 271.125 843.138 267.237 832.644 263.718" fill="#003459"/>
<path fill-rule="evenodd" clip-rule="evenodd" d="M707.781 1.83381C713.949 -0.611389 720.818 -0.611266 726.986 1.83416L1256.69 211.86C1267.17 216.012 1273.78 226.425 1273.08 237.663L1247.09 236.049C1273.08 237.663 1273.08 237.657 1273.08 237.663L1272.97 239.428L1272.63 244.46C1272.33 248.86 1271.89 255.309 1271.28 263.547C1270.06 280.022 1268.21 303.66 1265.66 332.383C1260.56 389.8 1252.66 467.664 1241.46 549.3C1230.28 630.822 1215.73 716.665 1197.24 789.842C1188 826.425 1177.65 860.323 1166.05 889.157C1154.6 917.62 1141.24 942.904 1125.24 960.874C1066.65 1026.64 967.439 1103.97 884.474 1163.99C842.687 1194.22 804.477 1220.45 776.714 1239.11C762.827 1248.45 751.542 1255.9 743.715 1261.03C739.8 1263.6 736.75 1265.58 734.671 1266.93L732.292 1268.47L731.468 1269C731.465 1269 731.45 1269.01 717.383 1247.11C703.368 1269.04 703.365 1269.04 703.361 1269.04L702.54 1268.51L700.21 1267.01C698.172 1265.7 695.184 1263.76 691.35 1261.26C683.681 1256.26 672.624 1248.99 659.011 1239.87C631.796 1221.64 594.317 1195.99 553.26 1166.34C471.737 1107.46 374.016 1031.3 315.432 965.521C299.448 947.575 286.002 922.246 274.398 893.687C262.64 864.75 252.064 830.692 242.544 793.904C223.504 720.315 208.216 633.909 196.297 551.81C184.363 469.6 175.728 391.159 170.077 333.308C167.251 304.369 165.168 280.551 163.791 263.95C163.103 255.649 162.59 249.151 162.249 244.717L161.865 239.648L161.769 238.336L161.738 237.906C161.737 237.9 161.735 237.871 187.708 236.014L161.738 237.906C160.928 226.585 167.55 216.01 178.106 211.825L707.781 1.83381ZM215.156 253.129C215.321 255.154 215.499 257.33 215.692 259.649C217.051 276.033 219.111 299.597 221.91 328.252C227.509 385.588 236.054 463.177 247.836 544.337C259.635 625.608 274.603 709.912 292.964 780.873C302.147 816.359 312.057 848.036 322.65 874.105C333.396 900.552 344.164 919.501 354.332 930.917C408.761 992.03 502.29 1065.31 583.764 1124.16C624.206 1153.37 661.162 1178.65 688.008 1196.64C700.023 1204.68 710.003 1211.26 717.351 1216.07C724.888 1211.12 735.199 1204.3 747.644 1195.93C775.048 1177.5 812.75 1151.63 853.937 1121.83C936.919 1061.8 1031.91 987.361 1086.33 926.27C1096.48 914.877 1107.15 896.027 1117.73 869.74C1128.16 843.823 1137.84 812.352 1146.75 777.099C1164.56 706.604 1178.8 622.907 1189.87 542.231C1200.92 461.668 1208.73 384.674 1213.78 327.782C1216.31 299.351 1218.14 275.972 1219.34 259.719C1219.51 257.41 1219.67 255.245 1219.81 253.231L717.382 54.0196L215.156 253.129ZM717.383 1247.11L703.361 1269.04C711.927 1274.5 722.916 1274.48 731.468 1269L717.383 1247.11Z" fill="#9C824A"/>
<path d="M144.649 1030.75C142.392 1031.3 141.003 1033.61 141.593 1035.88C142.079 1037.9 193.022 1237.3 380.369 1325.06C560.249 1409.3 703.041 1359.73 704.465 1359.2C706.688 1358.44 707.835 1355.99 707.036 1353.8C706.237 1351.56 703.84 1350.41 701.653 1351.21C700.264 1351.7 560.561 1400.05 383.945 1317.35C200.384 1231.37 150.309 1035.81 149.823 1033.85C149.268 1031.58 146.976 1030.19 144.684 1030.75H144.649Z" fill="#003459"/>
<path d="M646.665 1398.04C646.665 1398.04 554.96 1373.35 505.207 1452.17C505.207 1452.17 610.562 1473.68 646.665 1398.04Z" fill="#003459"/>
<path d="M505.208 1386.89C505.208 1386.89 426.903 1341.38 363.75 1422.51C363.75 1422.51 455.248 1466.91 505.208 1386.89Z" fill="#003459"/>
<path d="M383.955 1367.22C383.955 1367.22 323.307 1297.28 242.497 1359.62C242.497 1359.62 315.746 1432.48 383.955 1367.22Z" fill="#003459"/>
<path d="M282.915 1295.82C282.915 1295.82 230.433 1221.23 141.457 1268.75C141.457 1268.75 206.27 1347.85 282.915 1295.82Z" fill="#003459"/>
<path d="M202.076 1202.13C202.076 1202.13 157.703 1127.48 60.6172 1160.14C60.6172 1160.14 117.036 1240.48 202.076 1202.13Z" fill="#003459"/>
<path d="M141.458 1103.75C141.458 1103.75 104.379 1007.71 0 1035.76C0 1035.76 48.8675 1140.16 141.458 1103.75Z" fill="#003459"/>
<path d="M626.463 1353.96C626.463 1353.96 536.915 1350.22 525.421 1252.92C525.421 1252.92 625.558 1264.32 626.463 1353.96Z" fill="#003459"/>
<path d="M502.264 1353.96C502.264 1353.96 413.357 1326.36 425.514 1212.5C425.514 1212.5 523.199 1251.62 502.264 1353.96Z" fill="#003459"/>
<path d="M390.129 1313.54C390.129 1313.54 315.034 1264.79 355.536 1172.08C355.536 1172.08 435.772 1233.03 390.129 1313.54Z" fill="#003459"/>
<path d="M288.816 1252.92C288.816 1252.92 239.996 1189.01 275.879 1091.25C275.879 1091.25 327.343 1169.32 288.816 1252.92Z" fill="#003459"/>
<path d="M211.538 1151.88C211.538 1151.88 144.602 1088.19 211.83 1010.42C211.83 1010.42 281.031 1086.79 211.538 1151.88Z" fill="#003459"/>
<path d="M134.882 1030.62C134.882 1030.62 36.457 960.352 105.252 848.749C105.252 848.749 209.216 934.96 134.882 1030.62Z" fill="#003459"/>
<path d="M1310.33 1030.75C1312.58 1031.3 1313.97 1033.61 1313.42 1035.88C1312.93 1037.9 1261.98 1237.3 1074.63 1325.06C894.736 1409.3 751.936 1359.73 750.512 1359.2C748.324 1358.44 747.177 1355.99 747.94 1353.8C748.739 1351.56 751.137 1350.41 753.324 1351.21C754.712 1351.7 894.424 1400.05 1071.05 1317.35C1254.62 1231.37 1304.7 1035.81 1305.18 1033.85C1305.74 1031.58 1308.03 1030.19 1310.29 1030.75H1310.33Z" fill="#003459"/>
<path d="M788.122 1398.04C788.122 1398.04 879.831 1373.35 929.58 1452.17C929.58 1452.17 824.23 1473.68 788.122 1398.04Z" fill="#003459"/>
<path d="M929.579 1386.89C929.579 1386.89 1007.88 1341.38 1071.04 1422.51C1071.04 1422.51 979.536 1466.91 929.579 1386.89Z" fill="#003459"/>
<path d="M1071.05 1367.22C1071.05 1367.22 1131.69 1297.28 1212.5 1359.62C1212.5 1359.62 1139.25 1432.48 1071.05 1367.22Z" fill="#003459"/>
<path d="M1172.08 1295.82C1172.08 1295.82 1224.57 1221.23 1313.54 1268.75C1313.54 1268.75 1248.73 1347.85 1172.08 1295.82Z" fill="#003459"/>
<path d="M1252.92 1202.13C1252.92 1202.13 1297.3 1127.48 1394.38 1160.14C1394.38 1160.14 1337.96 1240.48 1252.92 1202.13Z" fill="#003459"/>
<path d="M1313.54 1103.75C1313.54 1103.75 1350.62 1007.71 1455 1035.76C1455 1035.76 1406.13 1140.16 1313.54 1103.75Z" fill="#003459"/>
<path d="M828.54 1353.96C828.54 1353.96 918.088 1350.22 929.582 1252.92C929.582 1252.92 829.445 1264.32 828.54 1353.96Z" fill="#003459"/>
<path d="M952.725 1353.96C952.725 1353.96 1041.64 1326.36 1029.48 1212.5C1029.48 1212.5 931.828 1251.62 952.725 1353.96Z" fill="#003459"/>
<path d="M1064.88 1313.54C1064.88 1313.54 1139.96 1264.79 1099.48 1172.08C1099.48 1172.08 1019.22 1233.03 1064.88 1313.54Z" fill="#003459"/>
<path d="M1153.14 1252.92C1153.14 1252.92 1226.36 1189.01 1172.54 1091.25C1172.54 1091.25 1095.34 1169.32 1153.14 1252.92Z" fill="#003459"/>
<path d="M1243.47 1151.88C1243.47 1151.88 1310.39 1088.19 1243.18 1010.42C1243.18 1010.42 1173.96 1086.79 1243.47 1151.88Z" fill="#003459"/>
<path d="M1313.41 1030.62C1313.41 1030.62 1387.22 960.352 1335.66 848.749C1335.66 848.749 1257.67 934.96 1313.41 1030.62Z" fill="#003459"/>
</svg>
